<?xml version="1.0" standalone="no"?>
<!DOCTYPE svg PUBLIC "-//W3C//DTD SVG 20010904//EN"
 "http://www.w3.org/TR/2001/REC-SVG-20010904/DTD/svg10.dtd">
<svg version="1.0" xmlns="http://www.w3.org/2000/svg"
 width="512.000000pt" height="512.000000pt" viewBox="0 0 512.000000 512.000000"
 preserveAspectRatio="xMidYMid meet">
<metadata>
Created by potrace 1.11, written by Peter Selinger 2001-2013
</metadata>
<g transform="translate(0.000000,512.000000) scale(0.100000,-0.100000)"
fill="#000000" stroke="none">
<path d="M2096 3370 c-740 -54 -1368 -222 -1744 -466 -117 -76 -257 -218 -299
-304 -53 -109 -64 -190 -42 -319 50 -286 301 -416 934 -486 425 -46 854 -58
1823 -52 789 5 963 11 1307 43 490 45 764 122 909 255 88 80 136 202 136 342
-1 144 -48 245 -175 373 -299 304 -896 508 -1750 600 -175 18 -906 28 -1099
14z m976 -196 l107 -7 168 -289 c92 -160 187 -312 211 -339 25 -27 67 -60 100
-76 49 -24 69 -28 142 -28 73 0 92 4 137 28 63 33 125 95 155 156 18 37 23 63
23 136 0 87 -1 92 -43 169 -23 43 -41 81 -38 83 7 7 196 -53 309 -98 283 -113
486 -258 553 -395 25 -50 29 -71 29 -139 -1 -65 -5 -90 -25 -130 -82 -166
-400 -245 -1185 -296 -258 -16 -1664 -23 -2025 -10 -855 32 -1272 102 -1423
240 -53 48 -71 97 -71 191 -1 74 3 93 28 144 80 164 330 323 707 451 l96 33
124 -215 c69 -120 142 -233 164 -256 63 -64 134 -92 230 -92 67 0 89 4 136 28
137 67 214 222 179 365 -6 28 -45 107 -86 178 -41 70 -73 128 -71 130 6 6 289
35 319 32 31 -3 38 -13 204 -298 94 -162 187 -313 207 -335 74 -86 215 -125
330 -91 123 36 228 167 229 287 1 99 -11 134 -103 294 -49 85 -89 158 -89 161
0 4 37 4 83 1 45 -4 130 -9 189 -13z"/>
</g>
</svg>
